<?xml version="1.0" encoding="utf-8"?>
<!-- Generator: Adobe Illustrator 19.2.0, SVG Export Plug-In . SVG Version: 6.00 Build 0)  -->
<!DOCTYPE svg PUBLIC "-//W3C//DTD SVG 1.1//EN" "http://www.w3.org/Graphics/SVG/1.1/DTD/svg11.dtd">
<svg version="1.1" id="Outline_Version" xmlns="http://www.w3.org/2000/svg" xmlns:xlink="http://www.w3.org/1999/xlink" x="0px"
	 y="0px" viewBox="0 0 24 24" style="enable-background:new 0 0 24 24;" xml:space="preserve">
<style type="text/css">
	.st0{fill:#BA3A26;}
</style>
<g>
	<path class="st0" d="M1,1h10v4.5C11,5.8,11.2,6,11.5,6H16v3.5h1v-4v0v0c0-0.1,0-0.1,0-0.2c0,0,0,0,0,0c0-0.1-0.1-0.1-0.1-0.2l-5-5
		c0,0-0.1-0.1-0.2-0.1c-0.1,0-0.1,0-0.2,0h-11C0.2,0,0,0.2,0,0.5v21C0,21.8,0.2,22,0.5,22H10v-1H1V1z M12,1.7L15.3,5H12V1.7z"/>
	<path class="st0" d="M17.5,11c-3.6,0-6.5,2.9-6.5,6.5s2.9,6.5,6.5,6.5s6.5-2.9,6.5-6.5S21.1,11,17.5,11z M12,17.5
		c0-3,2.5-5.5,5.5-5.5c1.3,0,2.6,0.5,3.5,1.3L13.3,21C12.5,20.1,12,18.8,12,17.5z M17.5,23c-1.3,0-2.6-0.5-3.5-1.3l7.7-7.7
		c0.8,1,1.3,2.2,1.3,3.5C23,20.5,20.5,23,17.5,23z"/>
</g>
</svg>
