<?xml version="1.0" encoding="utf-8"?>
<!-- Generator: Adobe Illustrator 19.2.0, SVG Export Plug-In . SVG Version: 6.00 Build 0)  -->
<!DOCTYPE svg PUBLIC "-//W3C//DTD SVG 1.1//EN" "http://www.w3.org/Graphics/SVG/1.1/DTD/svg11.dtd">
<svg version="1.1" id="Outline_Version" xmlns="http://www.w3.org/2000/svg" xmlns:xlink="http://www.w3.org/1999/xlink" x="0px"
	 y="0px" viewBox="0 0 24 24" style="enable-background:new 0 0 24 24;" xml:space="preserve">
<style type="text/css">
	.st0{fill:#BA3A26;}
</style>
<g>
	<path class="st0" d="M11.5,6H16v3.5h1v-4c0-0.1,0-0.1,0-0.2c0-0.1-0.1-0.1-0.1-0.2l-5-5c0,0-0.1-0.1-0.2-0.1c-0.1,0-0.1,0-0.2,0
		h-11C0.2,0,0,0.2,0,0.5v21C0,21.8,0.2,22,0.5,22h10v-1H1V1h10v4.5C11,5.8,11.2,6,11.5,6z M12,1.7L15.3,5H12V1.7z"/>
	<path class="st0" d="M23.9,23.2l-5.9-11.9c-0.2-0.3-0.7-0.3-0.9,0l-6,12c-0.1,0.2-0.1,0.3,0,0.5s0.3,0.2,0.4,0.2h12c0,0,0,0,0,0
		c0.3,0,0.5-0.2,0.5-0.5C24,23.4,24,23.3,23.9,23.2z M12.3,23l5.2-10.4L22.7,23H12.3z"/>
	<path class="st0" d="M17,16.4v3.3c0,0.3,0.2,0.5,0.5,0.5S18,20,18,19.7v-3.3c0-0.3-0.2-0.5-0.5-0.5S17,16.1,17,16.4z"/>
	<circle class="st0" cx="17.5" cy="21.3" r="0.5"/>
</g>
</svg>
