<?xml version="1.0" encoding="utf-8"?>
<!DOCTYPE svg PUBLIC "-//W3C//DTD SVG 1.1//EN" "http://www.w3.org/Graphics/SVG/1.1/DTD/svg11.dtd">
<svg xmlns="http://www.w3.org/2000/svg" viewBox="0 0 24 24" xml:space="preserve">
	<style type="text/css">
		.st0{fill:#0067C5;}
	</style>
    <path class="st0" d="M17,10V5.5c0-0.1-0.1-0.3-0.1-0.4l-5-5C11.8,0.1,11.6,0,11.5,0h-11C0.2,0,0,0.2,0,0.5v21C0,21.8,0.2,22,0.5,22
        h11c-0.9-1.3-1.5-2.8-1.5-4.5C10,13.5,13.1,10.3,17,10z M11.5,0.5l5,5h-5V0.5z"/>
    <path class="st0" d="M17.5,11c-3.6,0-6.5,2.9-6.5,6.5c0,1.6,0.6,3.1,1.6,4.2l9.2-9.2C20.6,11.6,19.1,11,17.5,11z"/>
    <path class="st0" d="M22.4,13.3l-9.2,9.2c1.1,1,2.6,1.6,4.2,1.6c3.6,0,6.5-2.9,6.5-6.5C24,15.9,23.4,14.4,22.4,13.3z"/>
</svg>
