<?xml version="1.0" encoding="utf-8"?>
<!DOCTYPE svg PUBLIC "-//W3C//DTD SVG 1.1//EN" "http://www.w3.org/Graphics/SVG/1.1/DTD/svg11.dtd">
<svg xmlns="http://www.w3.org/2000/svg" viewBox="0 0 24 24" xml:space="preserve">
	<path fill="#0067c5" d="M20.9,6.1l-6-6C14.8,0.1,14.6,0,14.5,0h-11C3.2,0,3,0.2,3,0.5v23C3,23.8,3.2,24,3.5,24h17
		c0.3,0,0.5-0.2,0.5-0.5v-17C21,6.4,20.9,6.2,20.9,6.1z M7.5,7H12c0.3,0,0.5,0.2,0.5,0.5S12.3,8,12,8H7.5C7.2,8,7,7.8,7,7.5
		S7.2,7,7.5,7z M16.5,20h-9C7.2,20,7,19.8,7,19.5S7.2,19,7.5,19h9c0.3,0,0.5,0.2,0.5,0.5S16.8,20,16.5,20z M16.5,17h-9
		C7.2,17,7,16.8,7,16.5S7.2,16,7.5,16h9c0.3,0,0.5,0.2,0.5,0.5S16.8,17,16.5,17z M16.5,14h-9C7.2,14,7,13.8,7,13.5S7.2,13,7.5,13h9
		c0.3,0,0.5,0.2,0.5,0.5S16.8,14,16.5,14z M16.5,11h-9C7.2,11,7,10.8,7,10.5S7.2,10,7.5,10h9c0.3,0,0.5,0.2,0.5,0.5S16.8,11,16.5,11z
		 M14.5,6.5v-6l6,6H14.5z"/>
</svg>
