<?xml version="1.0" encoding="utf-8"?>
<!-- Generator: Adobe Illustrator 16.0.0, SVG Export Plug-In . SVG Version: 6.00 Build 0)  -->
<!DOCTYPE svg PUBLIC "-//W3C//DTD SVG 1.1//EN" "http://www.w3.org/Graphics/SVG/1.1/DTD/svg11.dtd">
<svg version="1.1" id="Filled_Version" xmlns="http://www.w3.org/2000/svg" xmlns:xlink="http://www.w3.org/1999/xlink" x="0px"
	 y="0px" width="24px" height="24px" viewBox="0 0 24 24" enable-background="new 0 0 24 24" xml:space="preserve">
<path fill="none" stroke="gray" d="M10.725,7.944c-0.283,0-0.527,0.007-0.725,0.018V4.5c0-0.193-0.111-0.369-0.286-0.452C9.539,3.965,9.332,3.991,9.183,4.114
	l-8.5,7C0.567,11.209,0.5,11.351,0.5,11.5s0.067,0.291,0.183,0.387l8.5,7c0.149,0.123,0.356,0.149,0.531,0.065
	C9.889,18.87,10,18.693,10,18.5v-3.608c0.507-0.112,1.51-0.292,2.748-0.292c2.771,0,6.548,0.891,8.812,5.135
	C21.648,19.901,21.819,20,22,20c0.041,0,0.081-0.005,0.122-0.015C22.344,19.93,22.5,19.729,22.5,19.5
	C22.5,8.777,13.486,7.944,10.725,7.944z"/>
</svg>
