<?xml version="1.0" encoding="UTF-8" standalone="no"?>
<svg width="24px" height="24px" viewBox="0 0 24 24" version="1.1" xmlns="http://www.w3.org/2000/svg" xmlns:xlink="http://www.w3.org/1999/xlink">
    <!-- Generator: Sketch 3.8.3 (29802) - http://www.bohemiancoding.com/sketch -->
    <title>Melding svart</title>
    <desc>Created with Sketch.</desc>
    <defs></defs>
    <g id="Nytt-" stroke="none" stroke-width="1" fill="none" fill-rule="evenodd" stroke-linejoin="round">
        <g id="Innboks" transform="translate(-269.000000, -447.000000)" stroke="#000000">
            <g id="Melding-svart" transform="translate(269.000000, 447.000000)">
                <path d="M7.4404,14.564 C6.9514,14.498 6.4684,14.394 6.0004,14.25 L1.0004,16.25 L3.0004,12.75 C1.4264,11.491 0.5004,9.625 0.5004,7.686 C0.5004,3.856 4.3054,0.75 9.0004,0.75 C13.6944,0.75 17.5004,3.856 17.5004,7.686" id="Stroke-1010"></path>
                <path d="M9.5,16.25 C9.5,20.538 14.5,23.75 19,21.75 L23,23.25 L21.5,20.25 C22.796,19.213 23.5,17.848 23.5,16.25 C23.5,13.096 20.366,10.25 16.5,10.25 C12.634,10.25 9.5,13.096 9.5,16.25 L9.5,16.25 Z" id="Stroke-1011"></path>
            </g>
        </g>
    </g>
</svg>