<?xml version="1.0" encoding="UTF-8" standalone="no"?>
<svg width="24px" height="24px" viewBox="0 0 24 24" version="1.1" xmlns="http://www.w3.org/2000/svg">
	<!-- Generator: Sketch 40.1 (33804) - http://www.bohemiancoding.com/sketch -->
	<title>person</title>
	<desc>Created with Sketch.</desc>
	<defs></defs>
	<g id="Page-1" stroke="none" stroke-width="1" fill="none" fill-rule="evenodd">
		<g id="person" fill="#3E3832">
			<path d="M12,0 C5.372583,-4.05812251e-16 8.11624501e-16,5.372583 0,12 C-8.11624501e-16,18.627417 5.372583,24 12,24 C18.627417,24 24,18.627417 24,12 C24,8.81740212 22.7357179,5.76515517 20.4852814,3.51471863 C18.2348448,1.26428208 15.1825979,1.94877915e-16 12,0 L12,0 Z M1,12 C0.993300083,7.07158875 4.26549453,2.74021701 9.00811083,1.39974213 C13.7507271,0.0592672387 18.8061248,2.03689003 21.3802927,6.23962031 C23.9544607,10.4423506 23.4190619,15.8443304 20.07,19.46 C18.704717,18.7082335 17.2675372,18.0951708 15.78,17.63 L14.53,17.17 L14.53,15.3 C16.1764964,14.0866749 17.125164,12.1445208 17.07,10.1 C17.07,6.79 14.79,4.1 12,4.1 C9.21,4.1 6.93,6.79 6.93,10.1 C6.87190953,12.1954278 7.87150789,14.179593 9.59,15.38 L9.59,17.17 L8.32,17.63 C6.82237041,18.1065158 5.37537125,18.7295293 4,19.49 C2.08739655,17.4634439 1.01520148,14.7865302 1,12 L1,12 Z M7.89,10.1 C7.89,7.36 9.73,5.1 12,5.1 C14.27,5.1 16.11,7.4 16.11,10.1 C16.11,12.8 14.27,15.1 12,15.1 C9.73,15.1 7.89,12.84 7.89,10.1 L7.89,10.1 Z M4.68,20.19 C5.95989811,19.5184674 7.2988769,18.9661387 8.68,18.54 L10.28,17.95 C10.4669633,17.879195 10.5904632,17.6999211 10.59,17.5 L10.59,15.86 C11.539711,16.2045765 12.580289,16.2045765 13.53,15.86 L13.53,17.49 C13.5295368,17.6899211 13.6530367,17.869195 13.84,17.94 L15.41,18.52 C16.7730856,18.9594364 18.0921477,19.5252269 19.35,20.21 C15.1687839,23.941078 8.85102719,23.9324649 4.68,20.19 L4.68,20.19 Z" id="Shape"></path>
		</g>
	</g>
</svg>