<?xml version="1.0" encoding="utf-8"?>
<!-- Generator: Adobe Illustrator 19.2.1, SVG Export Plug-In . SVG Version: 6.00 Build 0)  -->
<svg version="1.1" id="Outline_Icons" xmlns="http://www.w3.org/2000/svg" xmlns:xlink="http://www.w3.org/1999/xlink" x="0px"
	 y="0px" viewBox="0 0 24 24" style="enable-background:new 0 0 24 24;" xml:space="preserve">
<style type="text/css">
	.st0{fill:none;stroke:#3E3832;stroke-linejoin:round;}
</style>
<path class="st0" d="M10,15c0,0-2.6-0.9-2.6-5.5c0-1.8,1.2-4.9,4.6-4.9s4.6,3.2,4.6,4.9c0,4.5-2.6,5.5-2.6,5.5v2.5
	c2.5,0.9,4.9,1.7,6.2,2.6c4.5-4.5,4.4-11.8-0.1-16.3S8.3-0.6,3.8,3.9c-4.4,4.5-4.4,11.7,0,16.2c1.3-0.9,4-1.7,6.2-2.6L10,15L10,15z"
	/>
<path class="st0" d="M3.8,20.1c4.5,4.5,11.7,4.6,16.3,0.1c0,0,0.1-0.1,0.1-0.1"/>
</svg>
