<?xml version="1.0" encoding="utf-8"?>
<!-- Generator: Adobe Illustrator 18.0.0, SVG Export Plug-In . SVG Version: 6.00 Build 0)  -->
<!DOCTYPE svg PUBLIC "-//W3C//DTD SVG 1.1//EN" "http://www.w3.org/Graphics/SVG/1.1/DTD/svg11.dtd">
<svg version="1.1" id="Layer_1" xmlns="http://www.w3.org/2000/svg" xmlns:xlink="http://www.w3.org/1999/xlink" x="0px" y="0px"
	 viewBox="0 0 32 32" enable-background="new 0 0 32 32" xml:space="preserve">
<g id="grid">
</g>
<g id="Layer_2">
	<path fill="#F1D013" d="M16,0C7.2,0,0,7.2,0,16c0,8.8,7.2,16,16,16s16-7.2,16-16C32,7.2,24.8,0,16,0z M24.5,16.5
		c0,0-1.4,3.2-8.4,8.1c-7.1-4.8-8.4-8.1-8.5-8.1C7.2,15.8,7,15,7,14.2C7,11.3,9.3,9,12.2,9c1.5,0,2.8,0.6,3.8,1.6
		c1-1,2.3-1.6,3.8-1.6c2.9,0,5.2,2.3,5.2,5.2C25,15,24.8,15.8,24.5,16.5z"/>
</g>
</svg>
