<?xml version="1.0" encoding="UTF-8" standalone="no"?>
<!-- Generator: Adobe Illustrator 16.0.0, SVG Export Plug-In . SVG Version: 6.00 Build 0)  -->

<svg
   xmlns:dc="http://purl.org/dc/elements/1.1/"
   xmlns:cc="http://creativecommons.org/ns#"
   xmlns:rdf="http://www.w3.org/1999/02/22-rdf-syntax-ns#"
   xmlns:svg="http://www.w3.org/2000/svg"
   xmlns="http://www.w3.org/2000/svg"
   xmlns:sodipodi="http://sodipodi.sourceforge.net/DTD/sodipodi-0.dtd"
   xmlns:inkscape="http://www.inkscape.org/namespaces/inkscape"
   version="1.1"
   x="0px"
   y="0px"
   width="32px"
   height="32px"
   viewBox="0 0 32 32"
   enable-background="new 0 0 32 32"
   xml:space="preserve"
   id="svg2"
   inkscape:version="0.91 r13725"
   sodipodi:docname="hjerte_lys_v3.svg"><metadata
     id="metadata12"><rdf:RDF><cc:Work
         rdf:about=""><dc:format>image/svg+xml</dc:format><dc:type
           rdf:resource="http://purl.org/dc/dcmitype/StillImage" /><dc:title /></cc:Work></rdf:RDF></metadata><defs
     id="defs10" /><sodipodi:namedview
     pagecolor="#ffffff"
     bordercolor="#666666"
     borderopacity="1"
     objecttolerance="10"
     gridtolerance="10"
     guidetolerance="10"
     inkscape:pageopacity="0"
     inkscape:pageshadow="2"
     inkscape:window-width="624"
     inkscape:window-height="644"
     id="namedview8"
     showgrid="false"
     inkscape:zoom="7.375"
     inkscape:cx="16"
     inkscape:cy="16"
     inkscape:window-x="616"
     inkscape:window-y="26"
     inkscape:window-maximized="0"
     inkscape:current-layer="svg2" /><g
     id="grid" /><g
     id="Layer_2-7"><path
       d="M 16,0 C 7.2,0 0,7.2 0,16 0,24.8 7.2,32 16,32 24.8,32 32,24.8 32,16 32,7.2 24.8,0 16,0 Z m 8.5,16.5 c 0,0 -1.4,3.2 -8.4,8.1 C 9,19.8 7.7,16.5 7.6,16.5 7.2,15.8 7,15 7,14.2 7,11.3 9.3,9 12.2,9 13.7,9 15,9.6 16,10.6 17,9.6 18.3,9 19.8,9 c 2.9,0 5.2,2.3 5.2,5.2 0,0.8 -0.2,1.6 -0.5,2.3 z"
       id="path3339"
       inkscape:connector-curvature="0"
       style="fill:#f1d013" /></g></svg>