<?xml version="1.0" encoding="UTF-8" standalone="no"?>
<!-- Generator: Adobe Illustrator 17.1.0, SVG Export Plug-In . SVG Version: 6.00 Build 0)  -->

<svg
   xmlns:dc="http://purl.org/dc/elements/1.1/"
   xmlns:cc="http://creativecommons.org/ns#"
   xmlns:rdf="http://www.w3.org/1999/02/22-rdf-syntax-ns#"
   xmlns:svg="http://www.w3.org/2000/svg"
   xmlns="http://www.w3.org/2000/svg"
   xmlns:sodipodi="http://sodipodi.sourceforge.net/DTD/sodipodi-0.dtd"
   xmlns:inkscape="http://www.inkscape.org/namespaces/inkscape"
   version="1.1"
   id="dokument_copy_3"
   x="0px"
   y="0px"
   width="45px"
   height="45px"
   viewBox="0 0 45 45"
   enable-background="new 0 0 45 45"
   xml:space="preserve"
   inkscape:version="0.91 r13725"
   sodipodi:docname="lenker_ikon_lys.svg"><metadata
     id="metadata9"><rdf:RDF><cc:Work
         rdf:about=""><dc:format>image/svg+xml</dc:format><dc:type
           rdf:resource="http://purl.org/dc/dcmitype/StillImage" /><dc:title /></cc:Work></rdf:RDF></metadata><defs
     id="defs7" /><sodipodi:namedview
     pagecolor="#ffffff"
     bordercolor="#666666"
     borderopacity="1"
     objecttolerance="10"
     gridtolerance="10"
     guidetolerance="10"
     inkscape:pageopacity="0"
     inkscape:pageshadow="2"
     inkscape:window-width="640"
     inkscape:window-height="480"
     id="namedview5"
     showgrid="false"
     inkscape:zoom="5.2444444"
     inkscape:cx="22.5"
     inkscape:cy="22.5"
     inkscape:window-x="631"
     inkscape:window-y="0"
     inkscape:window-maximized="0"
     inkscape:current-layer="dokument_copy_3" /><path
     inkscape:connector-curvature="0"
     style="fill:#a7509e"
     d="M 22.5,-1.3559322e-7 C 10.1,-1.3559322e-7 0,10.1 0,22.5 0,34.9 10.1,45 22.5,45 34.9,45 45,34.9 45,22.5 45,10.1 34.9,-1.3559322e-7 22.5,-1.3559322e-7 Z M 21.5,33.4 c -1.6,1.6 -4.3,1.6 -6,0 l -4,-4 c -1.5999999,-1.6 -1.5999999,-4.3 0,-6 l 5,-5 2,2 -5,5 c -0.5,0.5 -0.5,1.4 0,2 l 4,4 c 0.5,0.5 1.4,0.5 2,0 l 5,-5 2,2 -5,5 z m 5,-16.9 2,2 -9.9,9.9 -2,-2 9.9,-9.9 z m 6.9,5 -5,5 -2,-2 5,-5 c 0.5,-0.5 0.5,-1.4 0,-2 l -4,-4 C 26.9,13 26,13 25.4,13.5 l -5,5 -2,-2 5,-5 c 1.6,-1.6000001 4.3,-1.6000001 6,0 l 4,4 c 1.7,1.7 1.7,4.4 0,6 z"
     id="path3" /></svg>