<?xml version="1.0" encoding="utf-8"?>
<!-- Generator: Adobe Illustrator 17.1.0, SVG Export Plug-In . SVG Version: 6.00 Build 0)  -->
<!DOCTYPE svg PUBLIC "-//W3C//DTD SVG 1.1//EN" "http://www.w3.org/Graphics/SVG/1.1/DTD/svg11.dtd">
<svg version="1.1" id="dokument_copy_3" xmlns="http://www.w3.org/2000/svg" xmlns:xlink="http://www.w3.org/1999/xlink" x="0px"
	 y="0px" width="45px" height="45px" viewBox="0 0 45 45" enable-background="new 0 0 45 45" xml:space="preserve">
<path fill="#8F4F99" d="M22.5,0C10.1,0,0,10.1,0,22.5C0,34.9,10.1,45,22.5,45C34.9,45,45,34.9,45,22.5C45,10.1,34.9,0,22.5,0z
	 M21.5,33.4c-1.6,1.6-4.3,1.6-6,0l-4-4c-1.6-1.6-1.6-4.3,0-6l5-5l2,2l-5,5c-0.5,0.5-0.5,1.4,0,2l4,4c0.5,0.5,1.4,0.5,2,0l5-5l2,2
	L21.5,33.4z M26.5,16.5l2,2l-9.9,9.9l-2-2L26.5,16.5z M33.4,21.5l-5,5l-2-2l5-5c0.5-0.5,0.5-1.4,0-2l-4-4c-0.5-0.5-1.4-0.5-2,0l-5,5
	l-2-2l5-5c1.6-1.6,4.3-1.6,6,0l4,4C35.1,17.2,35.1,19.9,33.4,21.5z"/>
</svg>
