<?xml version="1.0" encoding="UTF-8" standalone="no"?>
<!-- Generator: Adobe Illustrator 16.0.0, SVG Export Plug-In . SVG Version: 6.00 Build 0)  -->

<svg
   xmlns:dc="http://purl.org/dc/elements/1.1/"
   xmlns:cc="http://creativecommons.org/ns#"
   xmlns:rdf="http://www.w3.org/1999/02/22-rdf-syntax-ns#"
   xmlns:svg="http://www.w3.org/2000/svg"
   xmlns="http://www.w3.org/2000/svg"
   xmlns:sodipodi="http://sodipodi.sourceforge.net/DTD/sodipodi-0.dtd"
   xmlns:inkscape="http://www.inkscape.org/namespaces/inkscape"
   version="1.1"
   id="Layer_1"
   x="0px"
   y="0px"
   width="13px"
   height="7px"
   viewBox="0 0 13 7"
   enable-background="new 0 0 13 7"
   xml:space="preserve"
   inkscape:version="0.48.4 r9939"
   sodipodi:docname="pil.svg"><metadata
   id="metadata3001"><rdf:RDF><cc:Work
       rdf:about=""><dc:format>image/svg+xml</dc:format><dc:type
         rdf:resource="http://purl.org/dc/dcmitype/StillImage" /><dc:title></dc:title></cc:Work></rdf:RDF></metadata><defs
   id="defs2999" /><sodipodi:namedview
   pagecolor="#ffffff"
   bordercolor="#666666"
   borderopacity="1"
   objecttolerance="10"
   gridtolerance="10"
   guidetolerance="10"
   inkscape:pageopacity="0"
   inkscape:pageshadow="2"
   inkscape:window-width="1920"
   inkscape:window-height="1138"
   id="namedview2997"
   showgrid="false"
   inkscape:zoom="23.307692"
   inkscape:cx="6.5"
   inkscape:cy="3.5"
   inkscape:window-x="-8"
   inkscape:window-y="-8"
   inkscape:window-maximized="1"
   inkscape:current-layer="Layer_1"
   showguides="true"
   inkscape:guide-bbox="true"><sodipodi:guide
     orientation="0,1"
     position="8.5379539,8.4521453"
     id="guide3008" /></sodipodi:namedview>
<polygon
   points="0,0 0,1 1,1 1,2 2,2 2,3 3,3 3,4 4,4 4,5 5,5 5,6 6,6 6,7 7,7 7,6 8,6 8,5 9,5 9,4 10,4 10,3 11,3   11,2 12,2 12,1 13,1 13,0 "
   id="polygon2995"
   fill="#0FA9E1" />
</svg>