<?xml version="1.0" encoding="utf-8"?>
<!-- Generator: Adobe Illustrator 16.0.0, SVG Export Plug-In . SVG Version: 6.00 Build 0)  -->
<!DOCTYPE svg PUBLIC "-//W3C//DTD SVG 1.1//EN" "http://www.w3.org/Graphics/SVG/1.1/DTD/svg11.dtd">
<svg version="1.1" xmlns="http://www.w3.org/2000/svg" xmlns:xlink="http://www.w3.org/1999/xlink" x="0px" y="0px" width="32px"
	 height="32px" viewBox="0 0 32 32" enable-background="new 0 0 32 32" xml:space="preserve">
<g id="grid">
</g>
<g id="Layer_2">
	<path fill="#DE4A77" d="M16,0C7.163,0,0,7.164,0,16c0,8.837,7.163,16,16,16s16-7.163,16-16C32,7.164,24.837,0,16,0z M24.455,16.535
		c-0.001,0.008-1.354,3.238-8.449,8.086c-7.096-4.848-8.448-8.078-8.451-8.086c-0.352-0.699-0.549-1.491-0.549-2.328
		C7.005,11.332,9.337,9,12.212,9c1.496,0,2.843,0.63,3.793,1.64C16.956,9.63,18.304,9,19.799,9c2.875,0,5.207,2.332,5.207,5.207
		C25.006,15.044,24.808,15.836,24.455,16.535z"/>
</g>
</svg>
