<?xml version="1.0" encoding="utf-8"?>
<!-- Generator: Adobe Illustrator 16.0.0, SVG Export Plug-In . SVG Version: 6.00 Build 0)  -->
<!DOCTYPE svg PUBLIC "-//W3C//DTD SVG 1.1//EN" "http://www.w3.org/Graphics/SVG/1.1/DTD/svg11.dtd">
<svg version="1.1" id="Layer_1" xmlns="http://www.w3.org/2000/svg" xmlns:xlink="http://www.w3.org/1999/xlink" x="0px" y="0px"
	 width="26px" height="26px" viewBox="0 0 26 26" enable-background="new 0 0 26 26" xml:space="preserve">
<g>
	<path fill="#0CA9E0" d="M19.017,5L19.017,5l-0.001-1h-3v1h-5.992h-0.008V4h-3v1h-3v17h0.922h1.078h14.001h1.921h0.079V5H19.017z
		 M16.017,6h2.999h0.001v1h-3V6z M7.016,6h3h0.008v1H7.016V6z M6.016,20V10h14V9.984h0.001V20H6.016z"/>
	<polygon fill="#0CA9E0" points="9.031,12 9.031,14 10.016,14 10.016,18 12.016,18 12.016,12 	"/>
	<polygon fill="#0CA9E0" points="13.031,12 13.031,14 14.016,14 14.016,18 16.016,18 16.016,12 	"/>
</g>
</svg>
