<?xml version="1.0" encoding="utf-8"?>
<!-- Generator: Adobe Illustrator 16.0.0, SVG Export Plug-In . SVG Version: 6.00 Build 0)  -->
<!DOCTYPE svg PUBLIC "-//W3C//DTD SVG 1.1//EN" "http://www.w3.org/Graphics/SVG/1.1/DTD/svg11.dtd">
<svg version="1.1" id="Layer_2" xmlns="http://www.w3.org/2000/svg" xmlns:xlink="http://www.w3.org/1999/xlink" x="0px" y="0px"
	 width="200px" height="200px" viewBox="0 0 200 200" enable-background="new 0 0 200 200" xml:space="preserve">
<path fill="#FFFFFF" d="M103.608,26.75C62.403,26.75,29,60.153,29,101.358c0,41.206,33.403,74.608,74.608,74.608
	c41.206,0,74.608-33.402,74.608-74.608C178.217,60.153,144.814,26.75,103.608,26.75z M103.608,161.511
	c-18.571,0-35.221-8.183-46.575-21.128c0,0,7.362-2.746,9.967-3.588c1.339-0.433,4.876-1.748,6.073-2.301
	c1.196-0.552,5.98-1.748,7.361-8.097c1.38-6.349,2.944-17.85,3.312-20.979c0,0-3.404-0.552-3.772,0
	c-0.368,0.552-2.577,0.645-2.944,1.013c-0.368,0.367-0.828,0.07-1.104,0.495c-0.276,0.425-0.92-1.63-0.736-1.753
	s-0.368-1.135-0.828-1.043s-1.012,0-1.38,0.736c-0.368,0.736-0.92,0.828-0.92,1.288s-0.368-1.817,0.276-2.427
	s-4.692,0.494-5.336,2.703c0,0-2.024-0.461,2.392-4.141c0.276-1.104,0.184-1.196-0.276-2.484c-0.46-1.289-0.736-1.38-0.92-1.933
	c-0.184-0.552-1.196-1.656-1.104-2.116c0.092-0.46-0.552-1.196-0.46-1.748s0.46-1.748,0.276-2.024
	c-0.184-0.276-1.104-1.104-1.932-1.472c-0.828-0.368-2.3-1.472-2.852-0.644c-0.552,0.828-0.552-2.024,0.276-2.3
	c0.828-0.276,0.92-1.012,1.472-1.564s0.46-0.828,1.196-0.46c0.736,0.368,1.38,1.104,2.024,0.92s0.828-0.887,0.828-1.087
	c0-0.201,0.552-1.397,0.644-2.133c0.092-0.736-0.552-1.656,0.092-2.484s1.012-0.92,1.426-1.564c0.414-0.645,1.242-1.472,1.426-1.84
	s0.644-1.38,1.288-1.564s0.92-0.828,1.933-0.644c1.012,0.184,1.288,0.368,1.288-0.46s-0.276-2.024,0.184-2.208
	c0.46-0.184,0.552-1.104,0.092-1.38s-1.38,0.092-1.012-0.828s0.828-1.38,1.288-1.748c0.46-0.368,0.736-1.196,0.92-1.932
	c0.184-0.736,0.092-1.84,0.092-2.393c0-0.552,0.736-0.828,1.104-1.656c0.368-0.828,5.245-5.98,5.061-6.809
	c-0.184-0.828,2.393-3.772,3.681-3.772s3.68-1.196,5.061-1.38c1.38-0.184,3.681-0.46,4.325-1.196
	c0.644-0.736,6.348-3.934,8.097-3.439c1.748,0.495,3.864,1.046,4.508,1.69c0.645,0.644,3.589,4.141,4.785,4.785
	s1.563,1.012,2.024,0.644c0.46-0.368,1.104-0.644,1.288-0.184c0.184,0.46,0.184,1.84,1.104,2.024s2.116,0.92,2.116,1.288
	s-0.828,1.932,0,2.116s2.208,0.368,2.576,0.736c0.368,0.368,1.749,1.84,2.393,2.3c0.645,0.46,0.828,2.3,1.84,2.484
	c1.013,0.184,1.933,1.472,2.301,2.116c0.368,0.645,1.012,1.933,1.748,2.668c0.736,0.736,1.104,3.681,1.196,4.232
	c0.092,0.552,0.184,1.749,0,2.484c-0.185,0.736-1.933,2.853-2.301,3.772c-0.367,0.92-0.46,3.957,0,4.601
	c0.461,0.644,0.645,1.932,0.276,2.853c-0.368,0.92-1.84,2.116-1.84,2.76c0,0,3.036,0.736,3.404,0.736c0,0-3.864,0.46-4.049,1.012
	c-0.184,0.552-0.828,0.834-0.184,2.073c0.644,1.239,1.563,4.459,0.092,8.232c-1.473,3.771-7.545,10.028-8.373,13.249
	s-1.288,5.797-2.576,6.257s-6.717,0-6.717,0s0,1.081,0.667,2.104c0.49,0.752,2.646,2.404,5.59,2.036
	c5.155-0.645,10.311-2.576,33.405,15.365C138.83,153.328,122.18,161.511,103.608,161.511z"/>
</svg>
