<?xml version="1.0" encoding="utf-8"?>
<!-- Generator: Adobe Illustrator 16.0.0, SVG Export Plug-In . SVG Version: 6.00 Build 0)  -->
<!DOCTYPE svg PUBLIC "-//W3C//DTD SVG 1.1//EN" "http://www.w3.org/Graphics/SVG/1.1/DTD/svg11.dtd">
<svg version="1.1" id="Layer_1" xmlns="http://www.w3.org/2000/svg" xmlns:xlink="http://www.w3.org/1999/xlink" x="0px" y="0px"
	 width="55px" height="55px" viewBox="0 0 55 55" enable-background="new 0 0 55 55" xml:space="preserve">
<path fill="#FFFFFF" d="M27.508-0.008C12.316-0.008,0,12.309,0,27.5s12.316,27.508,27.508,27.508S55.016,42.691,55.016,27.5
	S42.699-0.008,27.508-0.008z M41.672,44.588c-3.683,2.942-8.348,4.704-13.427,4.704c-5.08,0-9.744-1.762-13.427-4.704
	c0.104-0.293,1.956-1.719,2.22-1.961c2.822-2.602,4.115-4.45,4.166-5.438c0.051-0.989-1.072-3.747-1.072-3.747
	s-3.161,0.147-3.927-0.31c-0.864-0.514-1.031-1.572-0.841-2.605c0.19-1.033-0.201-0.978-0.569-1.316
	c-0.248-0.227-0.148-1.445,0.004-1.678c0.198-0.303-0.778-0.536-0.549-1.584c0.18-0.832,0.096-1.134,0.096-1.134
	s-1.811-0.436-1.874-1.074c-0.053-0.56,0.921-1.796,1.459-2.572c0.563-0.816,1.537-1.944,1.436-3.027
	c-0.104-1.084,0.037-2.334,0.252-2.993c0.221-0.659-0.468-0.982-0.468-0.982s0.421-0.331,0.603-0.599
	c0.18-0.264-0.456-0.696-0.456-0.696s1.672-0.395,1.77-0.745c0.096-0.35-1.443,0.07-1.443,0.07s0.01-0.798,0.947-1.357
	c0.935-0.562-0.327-0.759-0.327-0.759s-0.08-0.284,2.541-1.334c2.621-1.051,2.013-1.896,6.63-2.383
	c4.616-0.487,7.718,0.182,9.887,2.709c2.169,2.527,3.499,2.537,3.349,5.907c-0.153,3.37-0.049,5.349-1.139,8.214
	c-1.09,2.862-0.673,2.516-1.287,4.676c-0.646,2.281-0.708,2.188-1.318,2.321c-0.628,0.138-1.185,1.529,0.304,3.932
	c1.492,2.403,2.877,2.836,4.414,4.694C41.014,40.5,42.061,42.757,41.672,44.588z"/>
</svg>
