<?xml version="1.0" encoding="UTF-8"?>
<svg width="250px" height="66px" viewBox="0 0 250 66" version="1.1" xmlns="http://www.w3.org/2000/svg" xmlns:xlink="http://www.w3.org/1999/xlink">
    <!-- Generator: Sketch 42 (36781) - http://www.bohemiancoding.com/sketch -->
    <title>NAV-Modia logo</title>
    <desc>Created with Sketch.</desc>
    <defs>
        <polygon id="path-1" points="6.74622677 16.9556734 6.74622677 0.268608284 -1.78004647 0.268608284 -1.78004647 16.9556734"></polygon>
    </defs>
    <g id="Page-1" stroke="none" stroke-width="1" fill="none" fill-rule="evenodd">
        <g id="NAV-Modia-logo">
            <g id="nav-modia_logo">
                <g id="Group" transform="translate(16.000000, 0.000000)">
                    <g id="NAV-logo_hvit">
                        <g id="NAV-logo-/-hvit">
                            <g id="Modul-forslag">
                                <g id="NAV-logo-/-hvit-">
                                    <g id="Page-1-Copy">
                                        <polygon id="Fill-3" fill="#FFFFFF" fill-rule="nonzero" points="-2 47.3945609 4.73912639 30.7074959 11.2143866 30.7074959 4.48384758 47.3945609"></polygon>
                                        <polygon id="Fill-5" fill="#FFFFFF" fill-rule="nonzero" points="81.1584387 47.3945609 87.8113011 30.7074959 91.341487 30.7074959 84.6890149 47.3945609"></polygon>
                                        <g id="Group-9" transform="translate(96.022305, 30.438888)">
                                            <g id="Fill-7-Clipped">
                                                <mask id="mask-2" fill="white">
                                                    <use xlink:href="#path-1"></use>
                                                </mask>
                                                <g id="path-1"></g>
                                                <polygon id="Fill-7" fill="#FFFFFF" fill-rule="nonzero" mask="url(#mask-2)" points="-1.78004647 16.9556734 4.87164498 0.268608284 6.74642193 0.268608284 0.0939498141 16.9556734"></polygon>
                                            </g>
                                        </g>
                                        <path d="M46.912474,65.9773491 C28.7068792,65.9773491 13.944816,51.2085799 13.944816,32.9910178 C13.944816,14.771503 28.7068792,0 46.912474,0 C65.1247045,0 79.888329,14.771503 79.888329,32.9910178 C79.888329,51.2085799 65.1247045,65.9773491 46.912474,65.9773491 Z M75.0365874,30.7074959 L69.1753234,30.7074959 C69.1753234,30.7074959 68.7713271,30.7074959 68.6284647,31.0644426 L65.3847844,40.9992 L62.1438364,31.0644426 C62.000974,30.7074959 61.5946357,30.7074959 61.5946357,30.7074959 L50.3248959,30.7074959 C50.0809368,30.7074959 49.8764015,30.9113538 49.8764015,31.1538746 L49.8764015,34.5276852 C49.8764015,31.8513657 47.0300818,30.7074959 45.3633532,30.7074959 C41.630974,30.7074959 39.1324424,33.1670698 38.3545056,36.9064189 C38.3123494,34.4257562 38.1062528,33.5369041 37.4383903,32.6265728 C37.1315874,32.1805846 36.6881673,31.8056734 36.2053234,31.4955905 C35.2111413,30.912916 34.3184461,30.7074959 32.3999517,30.7074959 L30.1473309,30.7074959 C30.1473309,30.7074959 29.7402119,30.7074959 29.5965688,31.0644426 L27.5469219,36.1464426 L27.5469219,31.1538746 C27.5469219,30.9113538 27.343948,30.7074959 27.1003792,30.7074959 L21.8878513,30.7074959 C21.8878513,30.7074959 21.4854164,30.7074959 21.3390409,31.0644426 L19.2082045,36.3487385 C19.2082045,36.3487385 18.9954721,36.877129 19.481829,36.877129 L21.4854164,36.877129 L21.4854164,46.9466201 C21.4854164,47.1965609 21.682145,47.3945609 21.9331301,47.3945609 L27.1003792,47.3945609 C27.343948,47.3945609 27.5469219,47.1965609 27.5469219,46.9466201 L27.5469219,36.877129 L29.5610483,36.877129 C30.716829,36.877129 30.9615688,36.9087621 31.4112342,37.1184781 C31.6821264,37.2207976 31.9260855,37.4277799 32.0591896,37.6663953 C32.3316431,38.179555 32.3999517,38.7958154 32.3999517,40.6129633 L32.3999517,46.9466201 C32.3999517,47.1965609 32.6005836,47.3945609 32.8484461,47.3945609 L37.8010112,47.3945609 C37.8010112,47.3945609 38.3607509,47.3945609 38.5820706,46.8415669 L39.6796914,44.1273657 C41.1391524,46.1725846 43.5412714,47.3945609 46.5265502,47.3945609 L47.1787993,47.3945609 C47.1787993,47.3945609 47.742052,47.3945609 47.9649331,46.8415669 L49.8764015,42.1051882 L49.8764015,46.9466201 C49.8764015,47.1965609 50.0809368,47.3945609 50.3248959,47.3945609 L55.3805093,47.3945609 C55.3805093,47.3945609 55.9382974,47.3945609 56.1623494,46.8415669 C56.1623494,46.8415669 58.1842825,41.8189278 58.1920892,41.7810462 L58.1952119,41.7810462 C58.2728885,41.3631763 57.7451561,41.3631763 57.7451561,41.3631763 L55.9406394,41.3631763 L55.9406394,32.7449041 L61.6180558,46.8415669 C61.8397658,47.3945609 62.3987249,47.3945609 62.3987249,47.3945609 L68.3712342,47.3945609 C68.3712342,47.3945609 68.933316,47.3945609 69.155026,46.8415669 L75.449171,31.2479929 C75.6669777,30.7074959 75.0365874,30.7074959 75.0365874,30.7074959 Z M49.8764015,41.3631763 L46.4804907,41.3631763 C45.1287621,41.3631763 44.0291896,40.2681231 44.0291896,38.9141467 C44.0291896,37.5625136 45.1287621,36.4604308 46.4804907,36.4604308 L47.4301747,36.4604308 C48.7783903,36.4604308 49.8764015,37.5625136 49.8764015,38.9141467 L49.8764015,41.3631763 Z" id="Combined-Shape" fill="#FEFEFE" fill-rule="nonzero"></path>
                                    </g>
                                </g>
                            </g>
                        </g>
                    </g>
                    <path d="M114.784912,48.1606809 L114.784912,20.7469724 L123.068864,20.7469724 L128.042974,39.4466372 L132.960986,20.7469724 L141.263637,20.7469724 L141.263637,48.1606809 L136.12123,48.1606809 L136.12123,26.5812678 L130.679627,48.1606809 L125.350223,48.1606809 L119.92732,26.5812678 L119.92732,48.1606809 L114.784912,48.1606809 Z M145.508461,37.950664 C145.508461,36.2053532 145.938549,34.5161671 146.798738,32.8830548 C147.658927,31.2499426 148.87751,30.0033108 150.454523,29.1431219 C152.031536,28.282933 153.792403,27.852845 155.737178,27.852845 C158.741606,27.852845 161.203704,28.8283345 163.123545,30.7793426 C165.043387,32.7303507 166.003294,35.1955651 166.003294,38.17506 C166.003294,41.1794878 165.034038,43.6696349 163.095496,45.645576 C161.156954,47.6215171 158.716672,48.6094729 155.774577,48.6094729 C153.954467,48.6094729 152.218533,48.1980844 150.566721,47.375295 C148.914909,46.5525056 147.658927,45.3463893 146.798738,43.7569099 C145.938549,42.1674304 145.508461,40.2320345 145.508461,37.950664 Z M150.893965,38.231159 C150.893965,40.2008668 151.361452,41.7092914 152.29644,42.7564778 C153.231427,43.8036643 154.384562,44.3272497 155.755878,44.3272497 C157.127193,44.3272497 158.277211,43.8036643 159.205966,42.7564778 C160.13472,41.7092914 160.599091,40.1884005 160.599091,38.1937596 C160.599091,36.2489848 160.13472,34.7530266 159.205966,33.7058401 C158.277211,32.6586536 157.127193,32.1350683 155.755878,32.1350683 C154.384562,32.1350683 153.231427,32.6586536 152.29644,33.7058401 C151.361452,34.7530266 150.893965,36.2614511 150.893965,38.231159 Z M188.330693,48.1606809 L183.450081,48.1606809 L183.450081,45.2435332 C182.639758,46.3779852 181.682968,47.2225783 180.579682,47.7773378 C179.476397,48.3320973 178.363778,48.6094729 177.241792,48.6094729 C174.960422,48.6094729 173.006326,47.6900819 171.379447,45.8512723 C169.752568,44.0124628 168.939141,41.4475177 168.939141,38.1563603 C168.939141,34.7904038 169.730752,32.2316919 171.313999,30.4801479 C172.897245,28.7286039 174.898089,27.852845 177.316591,27.852845 C179.535629,27.852845 181.455442,28.7753526 183.076088,30.6203954 L183.076088,20.7469724 L188.330693,20.7469724 L188.330693,48.1606809 Z M174.305945,37.8010667 C174.305945,39.9203726 174.598903,41.4537298 175.184829,42.4011842 C176.032552,43.7724998 177.216852,44.4581473 178.737765,44.4581473 C179.947017,44.4581473 180.975488,43.9439117 181.82321,42.915425 C182.670933,41.8869383 183.094787,40.3504645 183.094787,38.3059576 C183.094787,36.0245871 182.683399,34.3821496 181.860609,33.378596 C181.03782,32.3750423 179.984416,31.8732729 178.700366,31.8732729 C177.453716,31.8732729 176.409661,32.3688091 175.568172,33.3598963 C174.726683,34.3509835 174.305945,35.8313588 174.305945,37.8010667 Z M193.510501,25.6088853 L193.510501,20.7469724 L198.765106,20.7469724 L198.765106,25.6088853 L193.510501,25.6088853 Z M193.510501,48.1606809 L193.510501,28.301637 L198.765106,28.301637 L198.765106,48.1606809 L193.510501,48.1606809 Z M208.077539,34.3603284 L203.309125,33.5001438 C203.845185,31.5803019 204.767692,30.1591416 206.076675,29.2366202 C207.385658,28.3140988 209.330404,27.852845 211.910971,27.852845 C214.254674,27.852845 215.999958,28.1302206 217.146877,28.6849801 C218.293795,29.2397396 219.100989,29.9440866 219.568483,30.7980422 C220.035977,31.6519979 220.269721,33.2196374 220.269721,35.5010079 L220.213622,41.6344979 C220.213622,43.3798087 220.297769,44.6669561 220.466067,45.4959787 C220.634365,46.3250013 220.94914,47.2132265 221.4104,48.1606809 L216.211894,48.1606809 C216.074762,47.8116188 215.906467,47.2942666 215.707003,46.6086088 C215.619737,46.2969461 215.557406,46.0912519 215.520006,45.9915198 C214.622418,46.8641752 213.662511,47.5186569 212.640258,47.9549846 C211.618004,48.3913123 210.527201,48.6094729 209.367816,48.6094729 C207.323309,48.6094729 205.712038,48.0547217 204.533953,46.9452027 C203.355868,45.8356837 202.766835,44.4332229 202.766835,42.7377782 C202.766835,41.6157927 203.034861,40.6153706 203.57092,39.736482 C204.10698,38.8575933 204.858076,38.1844121 205.82423,37.7169182 C206.790384,37.2494242 208.183495,36.8411523 210.003605,36.4920901 C212.459506,36.0308294 214.161159,35.6007414 215.108613,35.2018133 L215.108613,34.6782227 C215.108613,33.6684357 214.859287,32.9485058 214.360627,32.5184114 C213.861967,32.0883169 212.92076,31.8732729 211.536977,31.8732729 C210.60199,31.8732729 209.87271,32.0571511 209.349117,32.4249131 C208.825523,32.792675 208.401669,33.437807 208.077539,34.3603284 Z M215.108613,38.6238519 C214.435422,38.848249 213.369552,39.1162749 211.910971,39.4279375 C210.45239,39.7396001 209.498716,40.0450249 209.049922,40.3442211 C208.364264,40.8304148 208.02144,41.4474975 208.02144,42.1954879 C208.02144,42.9310117 208.295699,43.5667939 208.844226,44.1028537 C209.392752,44.6389134 210.090866,44.9069393 210.938588,44.9069393 C211.886043,44.9069393 212.789851,44.5952813 213.65004,43.971956 C214.285831,43.4982288 214.703453,42.918545 214.902917,42.2328872 C215.040049,41.784093 215.108613,40.9301502 215.108613,39.6710331 L215.108613,38.6238519 Z" id="Modia" fill="#00AA55"></path>
                </g>
            </g>
        </g>
    </g>
</svg>