<?xml version="1.0" encoding="utf-8"?>
<!-- Generator: Adobe Illustrator 16.0.0, SVG Export Plug-In . SVG Version: 6.00 Build 0)  -->
<!DOCTYPE svg PUBLIC "-//W3C//DTD SVG 1.1//EN" "http://www.w3.org/Graphics/SVG/1.1/DTD/svg11.dtd">
<svg version="1.1" id="Layer_1" xmlns="http://www.w3.org/2000/svg" xmlns:xlink="http://www.w3.org/1999/xlink" x="0px" y="0px"
	 width="35.831px" height="32px" viewBox="0 0 35.831 32" enable-background="new 0 0 35.831 32" xml:space="preserve">
<path fill="#A1A1A1" d="M22.908,30.032l3.763-3.825l-3.763-3.792l1.486-1.25c-2.207-1.063-4.934-2.436-4.934-2.436v-3.713
	c2-2.098,2.727-4.352,2.688-7.797c-0.053-4.424-2.92-7.258-6.707-7.258c-0.024,0-0.112,0.001-0.137,0.002
	c0,0-0.072-0.002-0.097-0.002c-3.787,0-6.57,2.834-6.623,7.258c-0.04,3.445,0.876,5.699,2.876,7.797v3.713
	c0,0-5.509,2.531-7.069,3.388c-1.628,0.895-2.485,1.347-3.261,2.714C0.407,26.104-0.034,28.051,0.002,32h24.75L22.908,30.032z"/>
<polygon fill="#00A9E0" points="35.831,22.383 34.031,20.583 30.267,24.346 26.504,20.583 24.703,22.383 28.467,26.146 
	24.703,29.909 26.504,31.709 30.267,27.946 34.031,31.709 35.831,29.909 32.069,26.146 "/>
</svg>
