<?xml version="1.0" encoding="utf-8"?>
<!-- Generator: Adobe Illustrator 17.1.0, SVG Export Plug-In . SVG Version: 6.00 Build 0)  -->
<!DOCTYPE svg PUBLIC "-//W3C//DTD SVG 1.1//EN" "http://www.w3.org/Graphics/SVG/1.1/DTD/svg11.dtd">
<svg version="1.1" id="svg2" xmlns="http://www.w3.org/2000/svg" xmlns:xlink="http://www.w3.org/1999/xlink" x="0px" y="0px"
	 width="16px" height="16px" viewBox="-1 -1.6 16 16" enable-background="new -1 -1.6 16 16" xml:space="preserve">
<g>
	<path fill="#0067C5" d="M7,11c-2.6,0-4.6-2-4.6-4.6c0-0.4,0.1-0.8,0.2-1.2l1.7,1.7l0-4.8l-4.8,0l1.5,1.5C0.6,4.4,0.4,5.4,0.4,6.4
		C0.4,10.1,3.3,13,7,13c1,0,1.9-0.2,2.8-0.6l-1.6-1.6C7.8,10.9,7.4,11,7,11z"/>
	<path fill="#0067C5" d="M9.8,5.8l0,4.8l4.8,0l-1.5-1.5c0.4-0.8,0.6-1.8,0.6-2.8c0-3.7-2.9-6.6-6.6-6.6c-1,0-1.9,0.2-2.8,0.6
		l1.6,1.6C6.2,1.8,6.6,1.7,7,1.7c2.6,0,4.6,2,4.6,4.6c0,0.4-0.1,0.8-0.2,1.2L9.8,5.8z"/>
</g>
</svg>
