<?xml version="1.0" encoding="utf-8"?>
<!-- Generator: Adobe Illustrator 16.0.0, SVG Export Plug-In . SVG Version: 6.00 Build 0)  -->
<!DOCTYPE svg PUBLIC "-//W3C//DTD SVG 1.1//EN" "http://www.w3.org/Graphics/SVG/1.1/DTD/svg11.dtd">
<svg version="1.1" xmlns="http://www.w3.org/2000/svg" xmlns:xlink="http://www.w3.org/1999/xlink" x="0px" y="0px" width="32px"
	 height="32px" viewBox="0 0 32 32" enable-background="new 0 0 32 32" xml:space="preserve">
<g id="grid">
</g>
<g id="hjerte" display="none">
	<path display="inline" fill="#DE4A77" d="M16,0C7.163,0,0,7.164,0,16c0,8.837,7.163,16,16,16s16-7.163,16-16
		C32,7.164,24.837,0,16,0z M24.455,16.535c-0.001,0.008-1.354,3.238-8.449,8.086c-7.096-4.848-8.448-8.078-8.451-8.086
		c-0.352-0.699-0.549-1.491-0.549-2.328C7.005,11.332,9.337,9,12.212,9c1.496,0,2.843,0.63,3.793,1.64
		C16.956,9.63,18.304,9,19.799,9c2.875,0,5.207,2.332,5.207,5.207C25.006,15.044,24.808,15.836,24.455,16.535z"/>
</g>
<g id="Sak">
	<path fill="#C9C5C3" d="M16,0C7.163,0,0,7.164,0,16c0,8.837,7.163,16,16,16s16-7.163,16-16C32,7.164,24.837,0,16,0z M15.484,24.736
		c-1.992,0-3.24-0.527-5.616-1.607l1.296-2.713c2.208,1.08,3.168,1.344,4.488,1.344c2.375,0,3.12-0.887,3.12-1.848
		c0-1.225-1.512-1.848-2.808-2.328c-2.544-0.912-5.76-1.848-5.76-5.16c0-3.984,3.096-5.161,6.36-5.161c1.417,0,3.12,0.48,5.233,1.68
		l-1.369,2.688c-1.967-0.96-2.904-1.272-4.032-1.272c-2.112,0-2.784,0.96-2.784,1.68c0,0.96,0.6,1.512,3,2.376
		c2.231,0.816,5.521,1.968,5.521,4.969C22.133,22.938,19.684,24.736,15.484,24.736z"/>
</g>
<g id="lenke" display="none">
	<path display="inline" fill="#C9C5C3" d="M16,0C7.163,0,0,7.164,0,16c0,8.837,7.163,16,16,16s16-7.163,16-16
		C32,7.164,24.837,0,16,0z M21,24H11V8h3v13h7V24z"/>
</g>
</svg>
