<?xml version="1.0" encoding="utf-8"?>
<!-- Generator: Adobe Illustrator 18.1.1, SVG Export Plug-In . SVG Version: 6.00 Build 0)  -->
<svg version="1.1" id="dokument_copy_3" xmlns="http://www.w3.org/2000/svg" xmlns:xlink="http://www.w3.org/1999/xlink" x="0px"
	 y="0px" viewBox="0 0 32 32" enable-background="new 0 0 32 32" xml:space="preserve">
<path fill="#2365AF" d="M17,27.8c-1.9,0-3.5-1.6-3.5-3.5h6.9C20.5,26.2,18.9,27.8,17,27.8z M26.6,22.3h-7.2h-4.7H7.5v-2.7h1.4
	c1.2,0,1.2-0.8,1.2-1.2c0-4.8,1.5-8.9,4.4-10.4c0.3-1.5,1.4-3.4,2.7-3.4c1.3,0,2.4,1.9,2.7,3.4c2.9,1.5,4.4,5.6,4.4,10.4
	c0,0.4,0,1.2,1.2,1.2h1.4V22.3z"/>
</svg>
